<svg width="1440" height="900" viewBox="0 0 1440 900" xmlns="http://www.w3.org/2000/svg">
  <defs>
    <linearGradient id="grad1" x1="0%" y1="0%" x2="100%" y2="100%">
      <stop offset="0%" style="stop-color:#ff5722;stop-opacity:0.05" />
      <stop offset="100%" style="stop-color:#1a237e;stop-opacity:0.1" />
    </linearGradient>
    <linearGradient id="grad2" x1="100%" y1="0%" x2="0%" y2="100%">
      <stop offset="0%" style="stop-color:#00bcd4;stop-opacity:0.05" />
      <stop offset="100%" style="stop-color:#ff5722;stop-opacity:0.1" />
    </linearGradient>
  </defs>
  
  <rect width="100%" height="100%" fill="#ffffff" />
  
  <!-- Abstract shapes -->
  <circle cx="200" cy="150" r="300" fill="url(#grad1)" />
  <circle cx="1200" cy="750" r="350" fill="url(#grad2)" />
  
  <!-- Geometric patterns -->
  <path d="M0,900 L1440,700 L1440,900 Z" fill="#ff5722" fill-opacity="0.03" />
  <path d="M0,0 L1440,200 L1440,0 Z" fill="#1a237e" fill-opacity="0.03" />
  
  <!-- Dots pattern -->
  <g fill="#1a237e" fill-opacity="0.05">
    <circle cx="100" cy="100" r="3" />
    <circle cx="200" cy="100" r="3" />
    <circle cx="300" cy="100" r="3" />
    <circle cx="400" cy="100" r="3" />
    <circle cx="500" cy="100" r="3" />
    <circle cx="600" cy="100" r="3" />
    <circle cx="700" cy="100" r="3" />
    <circle cx="800" cy="100" r="3" />
    <circle cx="900" cy="100" r="3" />
    <circle cx="1000" cy="100" r="3" />
    <circle cx="1100" cy="100" r="3" />
    <circle cx="1200" cy="100" r="3" />
    <circle cx="1300" cy="100" r="3" />
    <circle cx="1400" cy="100" r="3" />
    
    <circle cx="100" cy="200" r="3" />
    <circle cx="200" cy="200" r="3" />
    <circle cx="300" cy="200" r="3" />
    <circle cx="400" cy="200" r="3" />
    <circle cx="500" cy="200" r="3" />
    <circle cx="600" cy="200" r="3" />
    <circle cx="700" cy="200" r="3" />
    <circle cx="800" cy="200" r="3" />
    <circle cx="900" cy="200" r="3" />
    <circle cx="1000" cy="200" r="3" />
    <circle cx="1100" cy="200" r="3" />
    <circle cx="1200" cy="200" r="3" />
    <circle cx="1300" cy="200" r="3" />
    <circle cx="1400" cy="200" r="3" />
    
    <circle cx="100" cy="300" r="3" />
    <circle cx="200" cy="300" r="3" />
    <circle cx="300" cy="300" r="3" />
    <circle cx="400" cy="300" r="3" />
    <circle cx="500" cy="300" r="3" />
    <circle cx="600" cy="300" r="3" />
    <circle cx="700" cy="300" r="3" />
    <circle cx="800" cy="300" r="3" />
    <circle cx="900" cy="300" r="3" />
    <circle cx="1000" cy="300" r="3" />
    <circle cx="1100" cy="300" r="3" />
    <circle cx="1200" cy="300" r="3" />
    <circle cx="1300" cy="300" r="3" />
    <circle cx="1400" cy="300" r="3" />
    
    <circle cx="100" cy="400" r="3" />
    <circle cx="200" cy="400" r="3" />
    <circle cx="300" cy="400" r="3" />
    <circle cx="400" cy="400" r="3" />
    <circle cx="500" cy="400" r="3" />
    <circle cx="600" cy="400" r="3" />
    <circle cx="700" cy="400" r="3" />
    <circle cx="800" cy="400" r="3" />
    <circle cx="900" cy="400" r="3" />
    <circle cx="1000" cy="400" r="3" />
    <circle cx="1100" cy="400" r="3" />
    <circle cx="1200" cy="400" r="3" />
    <circle cx="1300" cy="400" r="3" />
    <circle cx="1400" cy="400" r="3" />
    
    <circle cx="100" cy="500" r="3" />
    <circle cx="200" cy="500" r="3" />
    <circle cx="300" cy="500" r="3" />
    <circle cx="400" cy="500" r="3" />
    <circle cx="500" cy="500" r="3" />
    <circle cx="600" cy="500" r="3" />
    <circle cx="700" cy="500" r="3" />
    <circle cx="800" cy="500" r="3" />
    <circle cx="900" cy="500" r="3" />
    <circle cx="1000" cy="500" r="3" />
    <circle cx="1100" cy="500" r="3" />
    <circle cx="1200" cy="500" r="3" />
    <circle cx="1300" cy="500" r="3" />
    <circle cx="1400" cy="500" r="3" />
    
    <circle cx="100" cy="600" r="3" />
    <circle cx="200" cy="600" r="3" />
    <circle cx="300" cy="600" r="3" />
    <circle cx="400" cy="600" r="3" />
    <circle cx="500" cy="600" r="3" />
    <circle cx="600" cy="600" r="3" />
    <circle cx="700" cy="600" r="3" />
    <circle cx="800" cy="600" r="3" />
    <circle cx="900" cy="600" r="3" />
    <circle cx="1000" cy="600" r="3" />
    <circle cx="1100" cy="600" r="3" />
    <circle cx="1200" cy="600" r="3" />
    <circle cx="1300" cy="600" r="3" />
    <circle cx="1400" cy="600" r="3" />
    
    <circle cx="100" cy="700" r="3" />
    <circle cx="200" cy="700" r="3" />
    <circle cx="300" cy="700" r="3" />
    <circle cx="400" cy="700" r="3" />
    <circle cx="500" cy="700" r="3" />
    <circle cx="600" cy="700" r="3" />
    <circle cx="700" cy="700" r="3" />
    <circle cx="800" cy="700" r="3" />
    <circle cx="900" cy="700" r="3" />
    <circle cx="1000" cy="700" r="3" />
    <circle cx="1100" cy="700" r="3" />
    <circle cx="1200" cy="700" r="3" />
    <circle cx="1300" cy="700" r="3" />
    <circle cx="1400" cy="700" r="3" />
    
    <circle cx="100" cy="800" r="3" />
    <circle cx="200" cy="800" r="3" />
    <circle cx="300" cy="800" r="3" />
    <circle cx="400" cy="800" r="3" />
    <circle cx="500" cy="800" r="3" />
    <circle cx="600" cy="800" r="3" />
    <circle cx="700" cy="800" r="3" />
    <circle cx="800" cy="800" r="3" />
    <circle cx="900" cy="800" r="3" />
    <circle cx="1000" cy="800" r="3" />
    <circle cx="1100" cy="800" r="3" />
    <circle cx="1200" cy="800" r="3" />
    <circle cx="1300" cy="800" r="3" />
    <circle cx="1400" cy="800" r="3" />
  </g>
</svg>
